<mxfile host="65bd71144e">
    <diagram id="ekcQr_7tXUFwMPI6W06x" name="PÃ¡gina-1">
        <mxGraphModel dx="804" dy="470" grid="1" gridSize="10" guides="1" tooltips="1" connect="1" arrows="1" fold="1" page="1" pageScale="1" pageWidth="827" pageHeight="1169" background="none" math="0" shadow="0">
            <root>
                <mxCell id="0"/>
                <mxCell id="1" parent="0"/>
                <mxCell id="40" value="" style="edgeStyle=none;html=1;" parent="1" source="38" target="39" edge="1">
                    <mxGeometry relative="1" as="geometry"/>
                </mxCell>
                <mxCell id="38" value="INICIO" style="html=1;dashed=0;whitespace=wrap;shape=mxgraph.dfd.start;fillColor=#33001A;" parent="1" vertex="1">
                    <mxGeometry x="120" y="80" width="80" height="30" as="geometry"/>
                </mxCell>
                <mxCell id="45" value="" style="edgeStyle=none;html=1;entryX=0.5;entryY=0;entryDx=0;entryDy=0;" parent="1" source="39" target="50" edge="1">
                    <mxGeometry relative="1" as="geometry">
                        <mxPoint x="160" y="230" as="targetPoint"/>
                    </mxGeometry>
                </mxCell>
                <mxCell id="39" value="x = n&lt;br&gt;fac = 1" style="shape=parallelogram;perimeter=parallelogramPerimeter;whiteSpace=wrap;html=1;dashed=0;fillColor=#660033;" parent="1" vertex="1">
                    <mxGeometry x="110" y="140" width="100" height="50" as="geometry"/>
                </mxCell>
                <mxCell id="46" value="" style="edgeStyle=none;html=1;exitX=0.5;exitY=1;exitDx=0;exitDy=0;" parent="1" source="50" target="42" edge="1">
                    <mxGeometry relative="1" as="geometry">
                        <mxPoint x="160" y="310" as="sourcePoint"/>
                    </mxGeometry>
                </mxCell>
                <mxCell id="47" value="" style="edgeStyle=none;html=1;" parent="1" target="43" edge="1">
                    <mxGeometry relative="1" as="geometry">
                        <mxPoint x="215" y="270" as="sourcePoint"/>
                    </mxGeometry>
                </mxCell>
                <mxCell id="49" style="edgeStyle=none;html=1;exitX=0;exitY=0.5;exitDx=0;exitDy=0;" parent="1" source="42" edge="1">
                    <mxGeometry relative="1" as="geometry">
                        <mxPoint x="160" y="210" as="targetPoint"/>
                        <Array as="points">
                            <mxPoint x="70" y="375"/>
                            <mxPoint x="70" y="260"/>
                            <mxPoint x="70" y="210"/>
                        </Array>
                    </mxGeometry>
                </mxCell>
                <mxCell id="42" value="fac = fac * n&lt;br&gt;n = n - 1" style="html=1;dashed=0;whitespace=wrap;fillColor=#CC0066;" parent="1" vertex="1">
                    <mxGeometry x="110" y="350" width="100" height="50" as="geometry"/>
                </mxCell>
                <mxCell id="48" value="" style="edgeStyle=none;html=1;exitX=0.5;exitY=0;exitDx=0;exitDy=0;" parent="1" source="43" target="44" edge="1">
                    <mxGeometry relative="1" as="geometry"/>
                </mxCell>
                <mxCell id="43" value="n&amp;nbsp;" style="shape=document;whiteSpace=wrap;html=1;boundedLbl=1;dashed=0;flipH=1;fillColor=#FF0080;" parent="1" vertex="1">
                    <mxGeometry x="270" y="235" width="100" height="70" as="geometry"/>
                </mxCell>
                <mxCell id="44" value="FIN" style="html=1;dashed=0;whitespace=wrap;shape=mxgraph.dfd.start;fillColor=#33001A;" parent="1" vertex="1">
                    <mxGeometry x="280" y="350" width="80" height="30" as="geometry"/>
                </mxCell>
                <mxCell id="50" value="n &amp;gt; 0" style="shape=hexagon;perimeter=hexagonPerimeter2;whiteSpace=wrap;html=1;size=0.25;fillColor=#FF3399;" parent="1" vertex="1">
                    <mxGeometry x="110" y="245" width="100" height="50" as="geometry"/>
                </mxCell>
            </root>
        </mxGraphModel>
    </diagram>
</mxfile>